<?xml version="1.0" standalone="no"?>
<!DOCTYPE svg PUBLIC "-//W3C//DTD SVG 20010904//EN"
 "http://www.w3.org/TR/2001/REC-SVG-20010904/DTD/svg10.dtd">
<svg version="1.0" xmlns="http://www.w3.org/2000/svg"
 width="1024.000000pt" height="1024.000000pt" viewBox="0 0 1024.000000 1024.000000"
 preserveAspectRatio="xMidYMid meet">

<g transform="translate(0.000000,1024.000000) scale(0.100000,-0.100000)"
fill="#000000" stroke="none">
<path d="M4633 6584 c3 -4 21 -8 38 -10 18 -2 37 -8 43 -13 6 -5 15 -9 21 -8
20 4 16 -32 -5 -43 -13 -7 -19 -18 -16 -26 4 -9 -2 -14 -17 -15 -14 -1 -10 -4
13 -9 l35 -7 -36 -2 c-20 0 -52 -4 -70 -8 -19 -5 270 -10 641 -13 l675 -5 3
-97 3 -98 29 0 30 0 0 100 0 100 175 0 175 0 24 -48 c30 -59 75 -104 127 -127
39 -18 39 -18 39 -77 l0 -58 -300 0 -300 0 0 -85 0 -85 30 0 c30 0 30 1 30 55
l0 55 262 0 261 0 -39 -29 c-93 -67 -137 -158 -137 -286 -1 -65 4 -90 25 -135
30 -68 78 -123 118 -140 16 -7 30 -15 30 -19 0 -3 -117 -5 -260 -3 l-260 3 0
49 0 50 -35 0 -35 0 0 -85 0 -85 305 0 305 0 0 -60 c0 -57 -1 -60 -34 -75 -57
-27 -110 -80 -139 -139 l-28 -56 -169 0 -170 0 0 110 0 110 -35 0 -35 0 0
-110 0 -111 -287 1 -288 1 -98 -77 c-54 -43 -100 -81 -102 -84 -2 -3 298 -5
666 -5 l669 0 0 38 c0 45 22 103 53 136 27 30 93 60 130 61 l27 0 0 224 0 224
-37 7 c-86 15 -153 95 -153 180 0 85 70 168 153 181 l37 7 0 213 0 213 -37 7
c-96 17 -173 100 -173 185 l0 29 -942 0 c-518 0 -939 -3 -935 -6z"/>
<path d="M4690 6540 c0 -5 5 -10 11 -10 5 0 7 5 4 10 -3 6 -8 10 -11 10 -2 0
-4 -4 -4 -10z"/>
<path d="M5680 6279 c-41 -11 -176 -49 -300 -84 -124 -35 -304 -84 -399 -110
-96 -25 -183 -53 -192 -61 -28 -26 -38 -65 -25 -104 9 -30 24 -42 100 -82 49
-26 94 -52 99 -57 13 -13 -278 -309 -418 -425 -107 -90 -260 -206 -270 -206
-3 0 -5 27 -5 60 l0 60 -30 0 -30 0 0 -83 c0 -91 6 -81 -85 -132 -27 -15 -81
-45 -119 -68 -112 -65 -270 -136 -431 -194 l-150 -54 76 6 c176 13 490 112
719 226 277 139 487 293 726 533 135 136 274 296 274 314 0 4 -36 30 -80 57
-44 28 -80 53 -80 56 0 3 78 27 173 52 94 25 238 64 320 86 122 33 147 37 147
24 0 -23 -70 -617 -74 -620 -1 -1 -30 28 -63 65 l-61 69 -174 -172 c-231 -229
-377 -343 -618 -486 -376 -221 -806 -355 -1215 -376 -201 -11 -78 -27 205 -27
209 0 263 4 365 22 319 59 659 192 927 364 110 70 312 232 420 336 l88 85 22
-29 c117 -149 147 -170 205 -142 39 19 50 48 62 168 34 334 72 694 81 750 16
110 13 148 -15 175 -30 31 -69 31 -175 4z"/>
<path d="M5960 5755 l0 -85 30 0 30 0 0 85 0 85 -30 0 -30 0 0 -85z"/>
<path d="M4212 5495 l4 -55 -215 -2 c-176 -2 -211 -5 -191 -15 24 -11 24 -12
3 -12 -12 -1 -25 -5 -28 -11 -4 -7 78 -10 239 -10 l246 0 -2 73 c-1 66 -2 68
-8 27 l-7 -45 -1 53 c-2 46 -5 52 -23 52 -19 0 -20 -5 -17 -55z m-312 -75
c-19 -13 -30 -13 -30 0 0 6 10 10 23 10 18 0 19 -2 7 -10z m227 3 c-20 -2 -52
-2 -70 0 -17 2 0 4 38 4 39 0 53 -2 32 -4z"/>
<path d="M3667 5055 c35 -42 48 -44 29 -6 -9 16 -24 31 -36 34 -18 5 -18 2 7
-28z"/>
<path d="M3714 4984 c3 -9 6 -32 6 -52 1 -28 3 -33 10 -21 9 16 -5 89 -17 89
-3 0 -2 -7 1 -16z"/>
<path d="M3748 4903 c7 -3 16 -2 19 1 4 3 -2 6 -13 5 -11 0 -14 -3 -6 -6z"/>
<path d="M5029 4301 c-55 -56 -23 -141 54 -141 74 0 109 98 52 147 -36 31 -70
29 -106 -6z"/>
<path d="M5925 4301 c-3 -6 -3 -184 1 -396 l7 -385 69 0 68 0 0 78 c1 75 2 78
39 120 21 23 43 42 47 42 5 0 44 -54 86 -120 l77 -120 81 0 c62 0 79 3 74 13
-5 6 -53 79 -108 162 -54 82 -99 155 -100 161 -1 6 45 62 102 123 l104 111
-84 0 -83 0 -115 -115 -115 -115 -5 222 -5 223 -67 3 c-38 2 -69 -2 -73 -7z"/>
<path d="M2760 3896 l0 -374 66 -4 c36 -1 68 -1 70 1 2 2 4 116 4 253 l0 249
101 -198 c56 -109 106 -202 110 -207 5 -5 26 -11 48 -13 l39 -4 112 216 c61
118 114 215 117 215 3 0 2 -115 -2 -255 l-7 -255 71 0 71 0 0 374 0 374 -77
-2 -76 -1 -89 -170 c-49 -93 -105 -199 -125 -233 l-35 -64 -122 234 -122 233
-77 3 -77 3 0 -375z"/>
<path d="M4523 4263 l-233 -3 0 -60 0 -60 120 0 120 0 0 -310 0 -310 48 -1
c26 -1 58 -2 72 -2 l25 -1 3 312 2 312 120 0 120 0 0 28 c0 15 -3 44 -6 65
l-7 37 -76 -2 c-42 -2 -181 -4 -308 -5z"/>
<path d="M7230 4155 l0 -75 -45 0 -45 0 0 -55 0 -55 45 0 45 0 0 -159 c0 -165
8 -209 44 -250 45 -51 147 -67 226 -35 45 18 47 26 24 84 -14 34 -19 38 -34
30 -10 -6 -31 -10 -47 -10 -63 0 -73 28 -73 199 l0 141 75 0 75 0 0 55 0 55
-75 0 -75 0 0 75 0 75 -70 0 -70 0 0 -75z"/>
<path d="M3670 4085 c0 -3 54 -132 120 -286 114 -265 120 -283 110 -315 -22
-65 -83 -91 -144 -59 -16 9 -30 14 -31 13 -2 -2 -13 -23 -25 -47 l-22 -45 22
-18 c32 -26 98 -41 149 -34 59 8 108 40 141 93 27 41 261 617 275 676 l7 27
-66 0 c-79 0 -68 17 -156 -237 -34 -101 -65 -183 -69 -183 -3 0 -33 71 -65
158 -32 86 -69 181 -82 210 l-23 52 -70 0 c-39 0 -71 -2 -71 -5z"/>
<path d="M5014 4081 c-2 -2 -4 -130 -4 -283 l0 -278 70 0 70 0 0 279 0 279
-66 4 c-36 1 -68 1 -70 -1z"/>
<path d="M5463 4074 c-59 -21 -132 -89 -159 -149 -32 -67 -33 -179 -3 -245 24
-54 81 -115 130 -140 82 -43 211 -45 289 -5 39 20 102 84 95 95 -3 6 -26 21
-50 36 l-45 26 -30 -26 c-52 -43 -147 -47 -200 -8 -47 35 -71 90 -67 155 5 85
56 143 135 154 52 7 79 0 126 -32 l38 -26 43 26 c24 14 46 29 50 34 9 15 -59
79 -106 101 -54 24 -182 26 -246 4z"/>
<path d="M6710 4081 c-83 -25 -169 -110 -191 -188 -45 -157 26 -309 167 -363
108 -41 255 -17 332 53 12 11 22 23 22 27 0 4 -18 21 -41 39 -38 31 -41 32
-59 16 -25 -23 -87 -44 -129 -45 -67 0 -161 68 -161 119 0 8 62 11 216 11
l217 0 -6 75 c-8 89 -23 128 -68 180 -50 57 -118 85 -204 84 -38 0 -81 -4 -95
-8z m167 -121 c51 -31 80 -101 47 -114 -27 -10 -262 -7 -269 4 -11 18 28 84
64 107 43 29 113 31 158 3z"/>
</g>
</svg>
